<svg width="1049" height="581" viewBox="0 0 1049 581" fill="none" xmlns="http://www.w3.org/2000/svg">
<rect y="21" width="1049" height="530" rx="10" fill="white"/>
<ellipse cx="1014.03" cy="30" rx="34.9667" ry="30" fill="white"/>
<ellipse cx="804.233" cy="30" rx="34.9667" ry="30" fill="white"/>
<ellipse cx="734.3" cy="30" rx="34.9667" ry="30" fill="white"/>
<ellipse cx="944.1" cy="30" rx="34.9667" ry="30" fill="white"/>
<ellipse cx="874.167" cy="30" rx="34.9667" ry="30" fill="white"/>
<ellipse cx="664.367" cy="30" rx="34.9667" ry="30" fill="white"/>
<ellipse cx="594.433" cy="30" rx="34.9667" ry="30" fill="white"/>
<ellipse cx="524.5" cy="30" rx="34.9667" ry="30" fill="white"/>
<ellipse cx="454.567" cy="30" rx="34.9667" ry="30" fill="white"/>
<ellipse cx="244.767" cy="30" rx="34.9667" ry="30" fill="white"/>
<ellipse cx="174.833" cy="30" rx="34.9667" ry="30" fill="white"/>
<ellipse cx="384.633" cy="30" rx="34.9667" ry="30" fill="white"/>
<ellipse cx="314.7" cy="30" rx="34.9667" ry="30" fill="white"/>
<ellipse cx="104.9" cy="30" rx="34.9667" ry="30" fill="white"/>
<ellipse cx="34.9667" cy="30" rx="34.9667" ry="30" fill="white"/>
<ellipse cx="1014.03" cy="551" rx="34.9667" ry="30" fill="white"/>
<ellipse cx="804.233" cy="551" rx="34.9667" ry="30" fill="white"/>
<ellipse cx="734.3" cy="551" rx="34.9667" ry="30" fill="white"/>
<ellipse cx="944.1" cy="551" rx="34.9667" ry="30" fill="white"/>
<ellipse cx="874.167" cy="551" rx="34.9667" ry="30" fill="white"/>
<ellipse cx="664.367" cy="551" rx="34.9667" ry="30" fill="white"/>
<ellipse cx="594.433" cy="551" rx="34.9667" ry="30" fill="white"/>
<ellipse cx="524.5" cy="551" rx="34.9667" ry="30" fill="white"/>
<ellipse cx="454.567" cy="551" rx="34.9667" ry="30" fill="white"/>
<ellipse cx="244.767" cy="551" rx="34.9667" ry="30" fill="white"/>
<ellipse cx="174.833" cy="551" rx="34.9667" ry="30" fill="white"/>
<ellipse cx="384.633" cy="551" rx="34.9667" ry="30" fill="white"/>
<ellipse cx="314.7" cy="551" rx="34.9667" ry="30" fill="white"/>
<ellipse cx="104.9" cy="551" rx="34.9667" ry="30" fill="white"/>
<ellipse cx="34.9667" cy="551" rx="34.9667" ry="30" fill="white"/>
</svg>
